<svg fill="#007bff" width="800px" height="800px" viewBox="0 0 32 32" id="OBJECT" xmlns="http://www.w3.org/2000/svg" stroke="#007bff">

<g id="SVGRepo_bgCarrier" stroke-width="0"/>

<g id="SVGRepo_tracerCarrier" stroke-linecap="round" stroke-linejoin="round"/>

<g id="SVGRepo_iconCarrier">

<title/>

<path d="M16,10a6,6,0,0,0-1,11.91V20.63A5.28,5.28,0,0,1,12.5,16a5.17,5.17,0,0,1,3.15-4.94,1.05,1.05,0,0,1,.7,0A5.17,5.17,0,0,1,19.5,16,5.28,5.28,0,0,1,17,20.63v1.28A6,6,0,0,0,16,10Z"/>

<ellipse cx="16" cy="16" rx="1.5" ry="2.9"/>

<path d="M28,12H26.25l-.18-.42,1.24-1.24a3,3,0,0,0,0-4.24L25.9,4.69a3.06,3.06,0,0,0-4.24,0L20.42,5.93,20,5.75V4a3,3,0,0,0-3-3H15a3,3,0,0,0-3,3V5.75l-.42.18L10.34,4.69a3.06,3.06,0,0,0-4.24,0L4.69,6.1a3,3,0,0,0,0,4.24l1.24,1.24L5.75,12H4a3,3,0,0,0-3,3v2a3,3,0,0,0,3,3H5.75l.18.42L4.69,21.66a3,3,0,0,0,0,4.24L6.1,27.31a3.06,3.06,0,0,0,4.24,0l1.24-1.24.42.18V28a3,3,0,0,0,3,3h2a3,3,0,0,0,3-3V26.25l.42-.18,1.24,1.24a3.06,3.06,0,0,0,4.24,0l1.41-1.41a3,3,0,0,0,0-4.24l-1.24-1.24.18-.42H28a3,3,0,0,0,3-3V15A3,3,0,0,0,28,12ZM16,24a8,8,0,1,1,8-8A8,8,0,0,1,16,24Z"/>

</g>

</svg>